PathFileType	4	(X/Y/Z)	s03c0302.trc
DataRate	CameraRate	NumFrames	NumMarkers	Units	OrigDataRate	OrigDataStartFrame	OrigNumFrames
200	200	4	52	mm	200	750	2000
Frame#	Time	racr			lacr			c7			jug			rlel			rdr			llel			ldr			s2			lic			ric			lasi			rasi			rpsi			lpsi			rgt			lgt			rth1			rth2			rth3			rth4			rlfc			rmfc			rsh1			rsh2			rsh3			rsh4			rlmal			rmmal			rcal			rtoe			rmt5			rmt1			lth1			lth2			lth4			lth3			llfc			lmfc			lsh1			lsh2			lsh3			lsh4			llmal			lmmal			lcal			ltoe			lmt1			lmt5			SBIKE			LBIKE			RBIKE			
		X1	Y1	Z1	X2	Y2	Z2	X3	Y3	Z3	X4	Y4	Z4	X5	Y5	Z5	X6	Y6	Z6	X7	Y7	Z7	X8	Y8	Z8	X9	Y9	Z9	X10	Y10	Z10	X11	Y11	Z11	X12	Y12	Z12	X13	Y13	Z13	X14	Y14	Z14	X15	Y15	Z15	X16	Y16	Z16	X17	Y17	Z17	X18	Y18	Z18	X19	Y19	Z19	X20	Y20	Z20	X21	Y21	Z21	X22	Y22	Z22	X23	Y23	Z23	X24	Y24	Z24	X25	Y25	Z25	X26	Y26	Z26	X27	Y27	Z27	X28	Y28	Z28	X29	Y29	Z29	X30	Y30	Z30	X31	Y31	Z31	X32	Y32	Z32	X33	Y33	Z33	X34	Y34	Z34	X35	Y35	Z35	X36	Y36	Z36	X37	Y37	Z37	X38	Y38	Z38	X39	Y39	Z39	X40	Y40	Z40	X41	Y41	Z41	X42	Y42	Z42	X43	Y43	Z43	X44	Y44	Z44	X45	Y45	Z45	X46	Y46	Z46	X47	Y47	Z47	X48	Y48	Z48	X49	Y49	Z49	X50	Y50	Z50	X51	Y51	Z51	X52	Y52	Z52	
750	3.7500	709.979227	1472.645798	-93.555880	711.100171	1466.940771	-418.992436	653.278553	1563.995102	-260.596504	665.475128	1389.758246	-254.866159	609.772294	1207.510955	3.217950	753.722315	960.698579	-56.030041	657.447993	1200.552631	-510.389369	756.624845	925.177367	-433.033719	126.547264	1296.307086	-260.414848	309.149175	1307.780000	-438.242066	285.462254	1324.893262	-72.160665	320.917145	1234.632852	-396.107501	311.237055	1244.546411	-114.882864	155.563816	1344.876835	-218.570184	165.321304	1342.281897	-294.363605	229.039397	1211.305743	-60.519446	238.719635	1201.337569	-457.835004	312.998532	1065.610535	-39.788390	382.933866	1010.467987	-41.176007	418.435964	932.529931	-48.068406	411.477920	1032.577552	-50.841748	476.125367	815.581775	-76.550399	482.850537	797.729220	-191.928106	417.277978	659.778538	-48.783947	407.494466	572.146387	-62.526131	354.494173	501.178979	-63.610063	435.520162	563.993077	-88.108432	294.528463	384.356772	-77.022228	320.364030	389.982907	-164.645396	224.836946	345.637023	-112.018460	533.767626	303.474337	-117.235147	414.917269	304.446839	-45.212169	439.843632	315.403495	-159.973119	313.427870	1067.408224	-483.447325	373.012645	1005.576750	-494.715463	404.598403	1022.560638	-489.409626	394.513717	919.391254	-500.419059	461.911076	803.918568	-499.942352	466.813693	786.521711	-375.289178	324.827681	693.313964	-505.001960	283.261792	623.438248	-479.491908	205.099264	580.830937	-461.290494	309.360139	601.845602	-459.289100	113.054691	504.286926	-430.865747	0.000000	0.000000	-0.000000	51.425702	535.569943	-380.027672	187.055911	260.093205	-351.714223	139.505145	342.645888	-317.639249	111.574131	346.126611	-433.797838	-216.428876	944.737948	-233.361347	-11.944631	81.061537	-435.592782	-11.979977	80.999952	-35.074513	
751	3.7550	712.829037	1469.362616	-95.138773	711.255168	1464.712181	-419.812524	654.772316	1561.209645	-261.363489	666.814660	1387.106348	-256.137297	609.717872	1205.422301	3.297954	753.459258	959.729933	-56.597808	658.795607	1198.311092	-510.468392	755.940943	922.431522	-429.903657	126.877105	1294.233282	-259.767092	309.801490	1305.456182	-437.107007	287.231579	1320.544660	-70.975459	321.173123	1232.581664	-394.763543	312.291399	1240.665477	-113.779727	156.312073	1342.073584	-217.393126	164.721296	1340.673383	-296.673910	228.490943	1206.917836	-59.570327	240.378433	1200.948625	-457.568937	310.097754	1060.228154	-39.374478	378.640831	1003.402038	-41.036915	412.192185	924.645467	-48.364204	407.765258	1024.993113	-50.297210	467.816543	807.540835	-77.088117	473.265597	790.828187	-194.075014	411.018598	651.169923	-48.417428	402.489724	563.296091	-61.988356	350.563096	491.586396	-62.820359	430.539738	555.593319	-87.531647	292.001685	373.360618	-76.731098	317.500725	379.502924	-163.890914	222.691476	334.799331	-111.109556	531.996795	290.745777	-118.864991	412.934961	292.772564	-44.873241	437.822242	304.229759	-159.483789	315.742762	1068.107319	-485.151412	376.620199	1007.443595	-496.778876	407.880633	1024.926481	-490.691997	399.892268	921.811873	-503.688300	467.936307	808.315756	-503.286640	487.869691	793.839264	-369.133245	328.163296	700.489043	-507.638034	285.166701	631.625809	-481.609170	206.083074	590.956359	-462.877094	310.853439	609.431305	-461.691811	112.710162	515.531197	-431.598465	0.000000	0.000000	-0.000000	50.643996	546.202590	-380.598896	190.209290	272.729018	-351.809859	141.556383	354.657015	-317.961332	113.392219	357.228093	-433.956535	-216.286343	944.765551	-233.232757	-11.908661	81.056390	-435.554409	-11.925838	80.915126	-35.029538	
752	3.7600	715.729860	1466.008817	-96.645727	711.334916	1462.612927	-420.758702	656.237618	1558.441878	-262.266935	668.092540	1384.667872	-257.621800	609.518728	1203.351330	3.341962	753.047034	958.728611	-57.227464	659.909171	1195.899715	-510.822739	755.367289	920.572343	-429.598092	127.219535	1291.911900	-258.953236	310.443016	1302.962954	-436.019166	288.931415	1316.131928	-69.931262	321.425447	1230.495603	-393.346581	313.508278	1236.639550	-112.622371	157.018295	1339.214889	-215.898898	165.137884	1338.683227	-295.397826	228.160451	1202.798350	-58.521361	242.031352	1200.377040	-457.221901	307.023617	1054.905368	-39.092088	374.404347	996.451011	-40.966296	405.541875	917.137872	-48.890839	403.907899	1017.390948	-49.840615	459.694797	800.164055	-77.570349	466.133081	784.416069	-193.949656	405.049659	642.518670	-48.283553	397.079790	554.607740	-61.777030	346.293754	482.249122	-61.824235	425.389989	546.978105	-87.081784	289.257605	362.849374	-76.353508	314.683686	369.343835	-162.992590	220.235661	324.486687	-110.201519	529.292952	278.640803	-119.024399	410.343655	281.255418	-44.484488	435.087107	293.158835	-159.306868	318.322142	1068.905755	-486.538354	380.540957	1009.723405	-498.639507	411.382497	1027.622094	-491.662677	405.485221	924.581211	-506.768551	473.918787	813.097734	-506.509431	504.035264	800.020943	-366.184097	331.807431	707.730979	-510.178024	287.432759	639.887102	-483.759911	207.612269	600.857662	-464.513845	312.759989	616.875929	-463.651114	112.890450	526.533791	-432.328094	0.000000	0.000000	-0.000000	50.508008	556.395741	-381.294086	194.128304	285.316227	-352.026314	135.167251	359.977806	-306.647091	115.664570	368.363448	-434.267282	-216.217522	944.739942	-233.127917	-11.902850	81.038032	-435.539888	-11.941488	80.914140	-35.008713	
753	3.7650	718.322447	1462.319720	-98.536602	711.312974	1460.525971	-421.641816	657.562134	1555.739072	-263.285579	669.268012	1382.213803	-259.253715	609.128697	1201.318760	3.429400	752.434124	957.789129	-57.906305	660.807190	1193.507362	-511.331456	755.305780	919.404714	-429.669354	127.504486	1289.686782	-257.910023	310.980349	1300.377700	-434.878825	290.628462	1311.525782	-69.012702	321.675343	1228.572040	-392.078455	314.819501	1232.549103	-111.457304	157.708742	1336.412020	-213.319511	165.429921	1336.576816	-294.279691	228.010994	1198.775210	-57.586162	243.678432	1199.652520	-456.686522	303.930841	1049.639777	-38.935614	369.651820	989.852858	-40.672196	399.343798	909.770546	-49.272661	400.007046	1010.012016	-48.764447	451.788782	792.941504	-78.104091	458.025335	777.609922	-194.362293	398.810480	634.041692	-48.332540	391.778638	545.855772	-61.256043	341.740184	473.089724	-60.998225	420.202882	538.499944	-86.518241	286.230657	352.769536	-75.923792	311.655686	359.301384	-161.841396	217.311201	315.081393	-109.242755	526.030593	266.899942	-119.119445	407.294505	270.040031	-44.306496	431.809753	282.803131	-159.385708	321.079315	1070.144143	-487.873236	384.605517	1012.367108	-500.255516	415.035121	1030.665490	-492.379739	411.159728	927.828820	-509.637920	479.856932	817.798110	-509.318750	515.966634	805.252295	-365.943949	335.799477	714.791762	-512.591552	290.200770	647.958941	-485.961348	209.675712	610.522875	-466.176853	315.127928	624.483198	-465.916010	113.809841	537.201775	-433.296062	0.000000	0.000000	-0.000000	50.816705	566.350361	-381.795922	198.686750	297.628513	-351.937888	138.431750	371.647777	-306.905904	118.817161	379.414801	-434.711286	-216.164946	944.690412	-233.106845	-11.895430	80.993284	-435.537986	-11.906286	80.855563	-35.015855	
